<?xml version="1.0" encoding="UTF-8" standalone="no"?>
<svg
   xmlns:dc="http://purl.org/dc/elements/1.1/"
   xmlns:cc="http://creativecommons.org/ns#"
   xmlns:rdf="http://www.w3.org/1999/02/22-rdf-syntax-ns#"
   xmlns:svg="http://www.w3.org/2000/svg"
   xmlns="http://www.w3.org/2000/svg"
   version="1.1"
   id="svg2"
   viewBox="0 0 708.56225 302.20407"
   height="85.288704mm"
   width="199.97202mm">
  <defs
     id="defs4" />
  <metadata
     id="metadata7">
    <rdf:RDF>
      <cc:Work
         rdf:about="">
        <dc:format>image/svg+xml</dc:format>
        <dc:type
           rdf:resource="http://purl.org/dc/dcmitype/StillImage" />
        <dc:title></dc:title>
      </cc:Work>
    </rdf:RDF>
  </metadata>
  <g
     transform="translate(-137.16549,-817.71172)"
     id="layer1">
    <path
       id="path4425"
       d="m 349.99977,469.16412 c -8.6542,4.13792 -22.62684,4.14636 -30.96381,0.0183 -3.50451,-1.73509 -7.08798,-5.1452 -8.1819,-7.78615 -0.94017,-2.26981 -1.17028,-97.26223 -0.24251,-100.13178 0.8484,-2.62409 2.70541,-4.98575 5.3219,-6.76805 l 2.24172,-1.52698 0.0201,-41.87061 c 0.0134,-28.73133 -0.22973,-43.13423 -0.77561,-45.89749 -0.85482,-4.32744 -2.91276,-8.78578 -5.03506,-10.90809 -3.22698,-3.22697 -8.99899,-5.17994 -13.69762,-4.63462 -3.58369,0.41595 -9.40311,2.60276 -12.47297,4.68709 -4.73441,3.21452 -5.88364,3.72353 -9.56127,4.23495 -5.43566,0.75587 -22.1157,0.51225 -23.54564,-0.34389 -0.70361,-0.42128 -1.51537,-1.40877 -1.91142,-2.32508 -0.92517,-2.14059 -1.05196,-42.67061 -0.14265,-45.6345 1.08629,-3.5411 2.02757,-3.80809 13.23362,-3.75346 11.46386,0.0558 14.38054,0.47717 18.97877,2.74137 4.23694,2.08626 11.28078,4.23891 14.30449,4.37152 1.89857,0.0834 2.62785,-0.16468 3.84064,-1.306 0.82334,-0.77483 1.69564,-1.52793 1.93836,-1.67358 0.24274,-0.14562 1.05239,-0.8361 1.79919,-1.53437 1.28191,-1.19856 2.93077,-1.27184 29.46638,-1.30944 15.45971,-0.0218 29.58283,0.23355 31.38477,0.56766 11.28218,2.09194 20.66084,7.67757 32.08536,19.10913 9.72305,9.72799 18.36496,21.44652 25.70748,34.85612 1.68079,3.06965 3.25264,5.9406 3.49299,6.37992 0.24035,0.43931 0.33446,0.90129 0.20911,1.0266 -0.12532,0.12547 -5.07296,0.22411 -10.99477,0.21951 l -10.76681,-0.007 -6.66452,-6.3922 c -10.85746,-10.41384 -19.56123,-15.56025 -29.81716,-17.63042 -4.34966,-0.87797 -11.74103,-0.76318 -14.51516,0.22543 -1.69953,0.60564 -1.8223,0.74688 -2.53108,2.91171 -0.4097,1.2514 -0.90004,3.39116 -1.08965,4.75504 -0.18949,1.36391 -0.37003,24.26334 -0.401,50.88763 l -0.0564,48.40779 1.61269,0.91481 c 2.14981,1.21951 5.07646,4.68621 5.87298,6.95673 0.37063,1.05656 0.62999,22.56029 0.61148,50.70213 -0.0351,53.08262 0.17094,50.19766 -3.8679,54.21143 -0.97421,0.96763 -3.17306,2.43034 -4.88695,3.24979 z"
       style="fill:#4f4f4f;fill-opacity:1" />
    <rect
       style="opacity:0.98999999;fill:#4f4f4f;fill-opacity:1;stroke:none;stroke-width:20;stroke-linecap:round;stroke-linejoin:round;stroke-miterlimit:4;stroke-dasharray:none;stroke-dashoffset:0;stroke-opacity:1"
       id="rect4433"
       width="135"
       height="114.99998"
       x="95"
       y="207.3622"
       rx="20"
       ry="20" />
    <rect
       style="opacity:0.98999999;fill:#4f4f4f;fill-opacity:1;stroke:none;stroke-width:20;stroke-linecap:round;stroke-linejoin:round;stroke-miterlimit:4;stroke-dasharray:none;stroke-dashoffset:0;stroke-opacity:1"
       id="rect4510"
       width="90"
       height="89.999992"
       x="90"
       y="382.36221"
       rx="20"
       ry="20" />
    <rect
       ry="20"
       rx="20"
       y="382.36221"
       x="200"
       height="89.999992"
       width="90"
       id="rect4515"
       style="opacity:0.98999999;fill:#4f4f4f;fill-opacity:1;stroke:none;stroke-width:20;stroke-linecap:round;stroke-linejoin:round;stroke-miterlimit:4;stroke-dasharray:none;stroke-dashoffset:0;stroke-opacity:1" />
    <path
       id="path4517"
       d="m 140,337.3622 0,30"
       style="fill:none;fill-rule:evenodd;stroke:#4f4f4f;stroke-width:15;stroke-linecap:round;stroke-linejoin:round;stroke-miterlimit:4;stroke-dasharray:none;stroke-opacity:1" />
    <path
       id="path4519"
       d="m 140,352.3622 105,0 0,15"
       style="fill:none;fill-rule:evenodd;stroke:#4f4f4f;stroke-width:15;stroke-linecap:round;stroke-linejoin:round;stroke-miterlimit:4;stroke-dasharray:none;stroke-opacity:1" />
    <text
       id="text4523"
       y="679.96436"
       x="339.12158"
       style="font-style:normal;font-weight:normal;font-size:126.95717621px;line-height:125%;font-family:sans-serif;letter-spacing:0px;word-spacing:0px;fill:#000000;fill-opacity:1;stroke:none;stroke-width:1px;stroke-linecap:butt;stroke-linejoin:miter;stroke-opacity:1"
       xml:space="preserve"><tspan
         id="tspan4531"
         style="font-style:normal;font-variant:normal;font-weight:normal;font-stretch:normal;font-family:Bahamas;-inkscape-font-specification:Bahamas"
         y="679.96436"
         x="339.12158">pen</tspan></text>
    <g
       id="text4535"
       style="font-style:normal;font-weight:normal;font-size:126.95717621px;line-height:125%;font-family:sans-serif;letter-spacing:0px;word-spacing:0px;fill:#000000;fill-opacity:1;stroke:none;stroke-width:1px;stroke-linecap:butt;stroke-linejoin:miter;stroke-opacity:1" />
    <ellipse
       ry="67.999977"
       rx="65"
       cy="685.36218"
       cx="265"
       id="path4539"
       style="opacity:0.98999999;fill:none;fill-opacity:1;stroke:#000000;stroke-width:12;stroke-linecap:round;stroke-linejoin:round;stroke-miterlimit:4;stroke-dasharray:none;stroke-dashoffset:0;stroke-opacity:1" />
    <path
       style="fill:#0063a8;fill-opacity:1"
       d="m 272.63168,782.36184 c -4.53704,2.16934 -11.86232,2.17376 -16.23306,0.01 -1.83727,-0.90963 -3.71593,-2.69741 -4.28944,-4.08196 -0.49289,-1.18997 -0.61352,-42.1552 -0.12714,-43.65958 0.44478,-1.37571 2.61052,-1.89824 2.79006,-3.54822 l 1.17525,-0.80055 0.0106,-23.77108 c 0.007,-15.06266 -0.12044,-13.7781 -0.40662,-15.22676 -0.44815,-2.2687 -1.52705,-4.60603 -2.63968,-5.71867 -1.69177,-1.69177 -4.71781,-2.71563 -7.1811,-2.42974 -1.87879,0.21806 -4.92968,1.36453 -6.53907,2.45724 -2.48206,1.68526 -3.08455,1.9521 -5.01259,2.22022 -2.8497,0.39627 -11.59436,0.26855 -12.34401,-0.18029 -0.36888,-0.22085 -0.79445,-0.73856 -1.00209,-1.21894 -0.48503,-1.12222 -0.5515,-22.37046 -0.0748,-23.92431 0.5695,-1.85645 1.06297,-1.99643 6.93785,-1.96779 6.01003,0.0293 7.53912,0.25017 9.94979,1.43719 2.22126,1.09374 5.91406,2.22229 7.49926,2.29182 0.99535,0.0437 1.37767,-0.0864 2.0135,-0.68468 0.43165,-0.40621 0.88895,-0.80104 1.0162,-0.8774 0.12726,-0.0763 0.55173,-0.43833 0.94324,-0.80441 0.67206,-0.62835 1.53649,-0.66677 15.44802,-0.68649 8.1049,-0.0114 15.50908,0.12245 16.45376,0.29761 5.9148,1.09673 10.83163,4.02504 16.82104,10.01813 5.09741,5.1 9.62801,11.24354 13.47739,18.27365 0.88117,1.60929 1.70521,3.11441 1.83122,3.34474 0.12602,0.23031 0.17535,0.47251 0.10963,0.5382 -0.0658,0.0658 -2.65954,0.11749 -5.76411,0.11508 l -5.64459,-0.004 -3.49394,-3.35118 c -5.69212,-5.45954 -10.25515,-8.1576 -15.63192,-9.24291 -2.28034,-0.46028 -6.15534,-0.4001 -7.6097,0.11818 -0.891,0.31752 -0.95536,0.39157 -1.32695,1.52651 -0.21479,0.65605 -0.47186,1.77784 -0.57126,2.49287 -0.0993,0.71504 -0.18525,3.88487 -0.21022,17.84288 l -0.0296,27.19828 0.84546,0.47959 c 1.12707,0.63933 2.66139,2.45679 3.07897,3.64713 0.1943,0.55392 0.33027,11.82744 0.32057,26.58106 -0.0184,27.82906 0.0896,17.48117 -2.02778,19.58543 -0.51074,0.50728 -1.6635,1.27412 -2.56203,1.70371 z"
       id="path4541" />
    <text
       xml:space="preserve"
       style="font-style:normal;font-weight:normal;font-size:126.95717621px;line-height:125%;font-family:sans-serif;letter-spacing:0px;word-spacing:0px;fill:#000000;fill-opacity:1;stroke:none;stroke-width:1px;stroke-linecap:butt;stroke-linejoin:miter;stroke-opacity:1"
       x="339.12158"
       y="757.96436"
       id="text4552"><tspan
         x="339.12158"
         y="757.96436"
         style="font-style:normal;font-variant:normal;font-weight:normal;font-stretch:normal;font-family:Bahamas;-inkscape-font-specification:Bahamas"
         id="tspan4554">ponk</tspan></text>
    <path
       id="ellipse4560"
       d="m 255.40755,871.36133 c -35.74492,0 -64.59245,30.33576 -64.59245,67.32171 0,29.40056 18.23689,54.57996 43.66814,63.67916 l 0,-11.70956 c -19.2213,-8.53273 -32.75111,-28.48569 -32.75111,-51.9696 0,-31.34624 24.1028,-56.40468 53.67542,-56.40468 29.57262,0 53.67542,25.05844 53.67542,56.40468 0,23.48391 -13.52981,43.43687 -32.7511,51.9696 l 0,11.70956 C 301.76311,993.263 320,968.0836 320,938.68304 c 0,-36.98595 -28.84752,-67.32171 -64.59245,-67.32171 z"
       style="color:#000000;font-style:normal;font-variant:normal;font-weight:normal;font-stretch:normal;font-size:medium;line-height:normal;font-family:sans-serif;text-indent:0;text-align:start;text-decoration:none;text-decoration-line:none;text-decoration-style:solid;text-decoration-color:#000000;letter-spacing:normal;word-spacing:normal;text-transform:none;direction:ltr;block-progression:tb;writing-mode:lr-tb;baseline-shift:baseline;text-anchor:start;white-space:normal;clip-rule:nonzero;display:inline;overflow:visible;visibility:visible;opacity:0.98999999;isolation:auto;mix-blend-mode:normal;color-interpolation:sRGB;color-interpolation-filters:linearRGB;solid-color:#000000;solid-opacity:1;fill:#000000;fill-opacity:1;fill-rule:nonzero;stroke:#000000;stroke-width:1;stroke-linecap:round;stroke-linejoin:round;stroke-miterlimit:4;stroke-dasharray:none;stroke-dashoffset:0;stroke-opacity:1;color-rendering:auto;image-rendering:auto;shape-rendering:auto;text-rendering:auto;enable-background:accumulate" />
    <path
       id="path4562"
       d="m 262.6576,1028.9295 c -4.12759,1.9736 -10.79178,1.9776 -14.76808,0.01 -1.67146,-0.8275 -3.38057,-2.454 -3.90233,-3.7135 -0.4484,-1.0826 -0.55815,-35.35086 -0.11566,-36.71948 1.12813,-2.12142 1.9472,-2.82539 3.60745,-3.9563 l 0.01,-21.62581 c 0.006,-13.7033 -0.10957,-12.53466 -0.36992,-13.85259 -0.40771,-2.06395 -1.38924,-4.19035 -2.40146,-5.20257 -1.53909,-1.5391 -4.29204,-2.47056 -6.53302,-2.21047 -1.70924,0.19838 -4.48479,1.24139 -5.94894,2.23548 -2.25806,1.53317 -2.80618,1.77593 -4.56022,2.01986 -2.59252,0.3605 -10.548,0.24431 -11.23,-0.16402 -0.33559,-0.20092 -0.72275,-0.67191 -0.91165,-1.10894 -0.44126,-1.02094 -0.50173,-20.35159 -0.068,-21.76521 0.5181,-1.68891 0.96704,-1.81625 6.31173,-1.7902 5.46764,0.0267 6.85873,0.22759 9.05185,1.30749 2.0208,0.99503 5.38033,2.02173 6.82247,2.08499 0.90552,0.0398 1.25334,-0.0786 1.83179,-0.62289 0.39269,-0.36955 0.80872,-0.72875 0.92449,-0.79822 0.11577,-0.0694 0.50194,-0.39877 0.85811,-0.73181 0.61141,-0.57165 1.39783,-0.6066 14.05388,-0.62454 7.37346,-0.0104 14.10943,0.1114 14.96886,0.27075 5.381,0.99776 9.8541,3.66179 15.30299,9.11403 4.63738,4.63973 8.75911,10.22884 12.26109,16.6245 0.80165,1.46406 1.55132,2.83334 1.66596,3.04289 0.11465,0.20952 0.15952,0.42986 0.0997,0.48963 -0.0599,0.0599 -2.41952,0.10688 -5.24391,0.10469 l -5.13518,-0.004 -3.17862,-3.04874 c -5.17843,-4.96684 -9.32966,-7.4214 -14.22119,-8.40877 -2.07454,-0.41874 -5.59984,-0.36399 -6.92294,0.10752 -0.81059,0.28886 -0.86915,0.35623 -1.2072,1.38874 -0.19541,0.59685 -0.42928,1.6174 -0.51971,2.2679 -0.0903,0.65051 -0.16853,3.53427 -0.19124,16.23261 l -0.0269,24.74371 0.76916,0.43631 c 1.02535,0.58163 2.4212,2.23507 2.8011,3.31799 0.17676,0.50393 0.30049,10.76001 0.29164,24.18227 -0.004,5.9985 0.0815,12.9034 -1.84478,14.8178 -0.46465,0.4615 -1.51337,1.1592 -2.33081,1.55 z"
       style="fill:#0063a8;fill-opacity:1" />
    <text
       id="text4564"
       y="1002.3622"
       x="320"
       style="font-style:normal;font-weight:normal;font-size:126.95717621px;line-height:125%;font-family:sans-serif;letter-spacing:0px;word-spacing:0px;fill:#000000;fill-opacity:1;stroke:none;stroke-width:1px;stroke-linecap:butt;stroke-linejoin:miter;stroke-opacity:1"
       xml:space="preserve"><tspan
         id="tspan4566"
         style="font-style:normal;font-variant:normal;font-weight:normal;font-stretch:normal;font-family:Bahamas;-inkscape-font-specification:Bahamas"
         y="1002.3622"
         x="320">penPonk</tspan></text>
    <text
       id="text4271"
       y="1057.0059"
       x="362.9455"
       style="font-style:normal;font-weight:normal;font-size:46.37848282px;line-height:125%;font-family:sans-serif;letter-spacing:0px;word-spacing:0px;fill:#0063a8;fill-opacity:1;stroke:none;stroke-width:1px;stroke-linecap:butt;stroke-linejoin:miter;stroke-opacity:1"
       xml:space="preserve"><tspan
         style="font-style:normal;font-variant:normal;font-weight:bold;font-stretch:normal;font-family:Arial;-inkscape-font-specification:'Arial Bold';fill:#0063a8;fill-opacity:1"
         y="1057.0059"
         x="362.9455"
         id="tspan4273">Modelling Platform</tspan></text>
  </g>
</svg>
