<?xml version="1.0" standalone="no"?>
<!DOCTYPE svg PUBLIC "-//W3C//DTD SVG 20010904//EN"
 "http://www.w3.org/TR/2001/REC-SVG-20010904/DTD/svg10.dtd">
<svg version="1.0" xmlns="http://www.w3.org/2000/svg"
 width="712.000000pt" height="712.000000pt" viewBox="0 0 712.000000 712.000000"
 preserveAspectRatio="xMidYMid meet">
<metadata>
Created by potrace 1.14, written by Peter Selinger 2001-2017
</metadata>
<g transform="translate(0.000000,712.000000) scale(0.100000,-0.100000)"
fill="#000000" stroke="none">
<path d="M3378 6965 c-2 -2 -34 -6 -73 -9 -469 -41 -1001 -249 -1365 -535 -14
-11 -50 -39 -80 -62 -217 -169 -451 -432 -619 -695 -153 -240 -298 -575 -366
-844 -29 -115 -61 -288 -71 -385 -2 -22 -7 -69 -11 -105 -9 -86 -9 -437 0
-525 15 -145 26 -219 43 -304 29 -141 73 -305 110 -406 20 -55 38 -110 41
-123 3 -12 9 -25 14 -28 5 -3 9 -14 9 -25 0 -10 5 -19 10 -19 6 0 10 -7 10
-16 0 -38 201 -407 271 -496 16 -20 29 -42 29 -47 0 -6 3 -11 8 -11 4 0 18
-17 32 -38 14 -20 27 -39 30 -42 3 -3 18 -21 34 -40 127 -158 342 -370 456
-450 19 -14 39 -30 45 -36 11 -12 203 -144 209 -144 2 0 33 -18 68 -39 146
-89 436 -218 464 -207 9 4 14 22 14 53 2 151 0 476 -2 477 -2 1 -55 28 -118
60 -110 56 -305 179 -361 228 -15 13 -44 37 -65 53 -84 65 -239 228 -364 382
-53 65 -175 267 -235 388 -111 226 -210 549 -231 753 -2 26 -8 81 -13 122 -8
73 -6 389 3 480 6 62 15 129 23 165 4 17 7 37 8 45 1 8 4 29 8 45 4 17 9 39
12 50 2 11 13 54 25 95 11 41 22 82 24 90 18 69 80 220 141 345 65 133 201
355 252 410 10 11 31 38 48 60 48 65 243 258 335 331 93 74 278 199 310 209
11 3 20 11 20 16 0 5 5 9 11 9 5 0 58 23 115 51 195 93 484 175 695 196 92 10
382 10 469 0 409 -43 802 -207 1145 -477 238 -187 481 -487 627 -775 63 -125
147 -335 162 -408 2 -7 5 -19 8 -27 12 -32 29 -102 33 -130 2 -16 6 -33 8 -37
3 -4 8 -24 11 -43 3 -19 8 -46 11 -60 36 -190 41 -559 9 -768 -11 -76 -34
-198 -44 -237 -6 -22 -13 -48 -15 -58 -2 -10 -7 -27 -10 -37 -3 -10 -8 -27
-10 -37 -17 -70 -108 -301 -158 -398 -81 -157 -135 -242 -269 -420 -47 -62
-290 -315 -303 -315 -3 0 -13 -8 -23 -18 -10 -9 -31 -27 -47 -39 -17 -13 -46
-35 -66 -50 -44 -34 -63 -47 -109 -75 -112 -70 -146 -89 -226 -128 -49 -24
-91 -44 -93 -46 -9 -7 -2 -517 8 -527 7 -7 32 -2 83 18 40 16 74 28 75 27 2
-1 76 36 165 81 151 77 308 171 316 189 2 5 8 8 13 8 8 0 100 64 136 95 6 6
30 26 54 45 103 84 274 251 338 330 20 25 45 54 56 66 11 12 28 32 37 45 40
56 98 135 108 146 5 7 10 16 10 22 0 5 4 11 8 13 19 7 192 309 192 334 0 8 4
14 9 14 5 0 12 10 16 23 9 26 6 19 34 82 28 62 43 97 47 110 2 6 23 70 49 143
25 73 47 142 49 155 3 12 5 23 7 25 2 2 2 2 14 57 4 22 9 45 11 50 26 115 41
204 50 290 3 33 8 87 12 120 13 127 5 529 -12 621 -2 10 -7 39 -10 64 -3 25
-8 56 -11 70 -10 52 -26 136 -31 160 -2 14 -7 32 -10 40 -3 8 -8 26 -10 40 -3
14 -14 54 -25 90 -12 36 -22 70 -23 75 -1 6 -4 15 -7 20 -4 6 -10 24 -14 40
-10 35 -10 34 -20 60 -4 11 -20 52 -35 90 -30 78 -119 267 -129 275 -3 3 -21
34 -40 70 -143 270 -431 613 -686 815 -27 22 -52 42 -55 45 -11 12 -178 127
-245 169 -262 163 -653 313 -929 357 -21 3 -47 7 -56 9 -29 6 -101 15 -155 21
-55 6 -452 13 -457 9z"/>
<path d="M1964 4819 c-116 -14 -117 -20 -117 -463 0 -471 3 -530 29 -563 26
-33 47 -36 284 -36 261 0 278 3 393 77 157 101 309 133 427 90 85 -31 137 -74
173 -144 30 -56 38 -78 53 -135 1 -5 6 -26 10 -45 4 -19 8 -362 8 -762 l2
-728 -42 -29 c-22 -17 -58 -56 -80 -87 l-39 -56 0 -757 c0 -416 4 -773 8 -794
6 -26 24 -53 62 -90 71 -71 137 -103 283 -135 55 -13 278 -7 315 7 16 6 32 9
37 6 5 -3 11 -1 15 5 3 5 13 10 20 10 27 0 124 52 158 84 36 33 62 98 72 176
4 25 9 63 11 85 6 42 6 1174 1 1327 -3 76 -7 92 -32 130 -31 48 -80 95 -108
104 -17 5 -18 44 -16 887 1 485 5 889 9 897 5 8 10 30 13 48 7 46 32 80 65 89
15 5 86 8 157 8 107 0 143 -4 202 -23 40 -12 75 -22 78 -22 3 1 46 -20 95 -46
106 -56 237 -152 339 -249 41 -39 94 -89 119 -113 l45 -42 223 0 c248 1 228
-6 191 70 -47 96 -199 346 -236 389 -12 13 -21 30 -21 37 0 7 -3 14 -8 16 -4
2 -31 35 -61 73 -229 296 -488 522 -697 609 -168 69 -165 69 -895 70 l-507 0
-38 -26 c-22 -15 -54 -41 -73 -58 -30 -27 -41 -31 -85 -29 -65 3 -146 27 -274
79 -57 23 -113 43 -125 46 -74 15 -359 23 -443 13z"/>
</g>
</svg>
